# xmcd
#
# Track frame offsets:
#	150
#	17967
#	34697
#	52630
#	66442
#	91357
#	109967
#	129837
#	152717
#	170700
#	190080
#
# Disc length: 2851 seconds
#
# Revision: 2
# Processed by: cddbd v1.5.2PL0 Copyright (c) Steve Scherf et al.
# Submitted via: audiograbber 1.83.01
#
DISCID=8c0b210b
DTITLE=Andrew Bond - Gränzeloos
DYEAR=2003
DGENRE=Mundart
TTITLE0=D Wält wartet
TTITLE1=Gränzeloos
TTITLE2=Diis Herz
TTITLE3=Nume dich
TTITLE4=After-Baby-Blues
TTITLE5=Let me be there
TTITLE6=Tuppi Party 
TTITLE7=Glas a de Wand
TTITLE8=So frömd
TTITLE9=Ich bliibe
TTITLE10=Gmeinsam einsam
EXTD=
EXTT0=
EXTT1=
EXTT2=
EXTT3=
EXTT4=
EXTT5=
EXTT6=
EXTT7=
EXTT8=
EXTT9=
EXTT10=
PLAYORDER=
